<svg preserveAspectRatio="none" width="100%" height="100%" overflow="visible" style="display: block;" viewBox="0 0 80 100" fill="none" xmlns="http://www.w3.org/2000/svg">
<path id="Icon" opacity="0.05" d="M10 100C7.25 100 4.89583 99.0208 2.9375 97.0625C0.979167 95.1042 0 92.75 0 90V30C0 27.25 0.979167 24.8958 2.9375 22.9375C4.89583 20.9792 7.25 20 10 20H20V20C20 14.5 21.9583 9.79167 25.875 5.875C29.7917 1.95833 34.5 0 40 0C45.5 0 50.2083 1.95833 54.125 5.875C58.0417 9.79167 60 14.5 60 20V20H70C72.75 20 75.1042 20.9792 77.0625 22.9375C79.0208 24.8958 80 27.25 80 30V90C80 92.75 79.0208 95.1042 77.0625 97.0625C75.1042 99.0208 72.75 100 70 100H10V100M10 90H70V90V90V30V30V30H60V40C60 41.4167 59.5208 42.6042 58.5625 43.5625C57.6042 44.5208 56.4167 45 55 45C53.5833 45 52.3958 44.5208 51.4375 43.5625C50.4792 42.6042 50 41.4167 50 40V30H30V40C30 41.4167 29.5208 42.6042 28.5625 43.5625C27.6042 44.5208 26.4167 45 25 45C23.5833 45 22.3958 44.5208 21.4375 43.5625C20.4792 42.6042 20 41.4167 20 40V30H10V30V30V90V90V90V90M30 20H50V20C50 17.25 49.0208 14.8958 47.0625 12.9375C45.1042 10.9792 42.75 10 40 10C37.25 10 34.8958 10.9792 32.9375 12.9375C30.9792 14.8958 30 17.25 30 20V20V20M10 90V90V90V90V30V30V30V30V30V30V90V90V90V90" fill="var(--fill-0, #1B1C1A)"/>
</svg>
