<svg preserveAspectRatio="none" width="100%" height="100%" overflow="visible" style="display: block;" viewBox="0 0 101.396 106.667" fill="none" xmlns="http://www.w3.org/2000/svg">
<path id="Icon" d="M42.6667 69.3333H53.3333L54.1333 62.6667C54.8444 62.4 55.4889 62.0889 56.0667 61.7333C56.6444 61.3778 57.1556 60.9778 57.6 60.5333L63.7333 63.2L69.0667 54.1333L63.7333 50.1333C63.9111 49.4222 64 48.7111 64 48C64 47.2889 63.9111 46.5778 63.7333 45.8667L69.0667 41.8667L63.7333 32.8L57.6 35.4667C57.1556 35.0222 56.6444 34.6222 56.0667 34.2667C55.4889 33.9111 54.8444 33.6 54.1333 33.3333L53.3333 26.6667H42.6667L41.8667 33.3333C41.1556 33.6 40.5111 33.9111 39.9333 34.2667C39.3556 34.6222 38.8444 35.0222 38.4 35.4667L32.2667 32.8L26.9333 41.8667L32.2667 45.8667C32.0889 46.5778 32 47.2889 32 48C32 48.7111 32.0889 49.4222 32.2667 50.1333L26.9333 54.1333L32.2667 63.2L38.4 60.5333C38.8444 60.9778 39.3556 61.3778 39.9333 61.7333C40.5111 62.0889 41.1556 62.4 41.8667 62.6667L42.6667 69.3333V69.3333M48 56C45.7778 56 43.8889 55.2222 42.3333 53.6667C40.7778 52.1111 40 50.2222 40 48C40 45.7778 40.7778 43.8889 42.3333 42.3333C43.8889 40.7778 45.7778 40 48 40C50.2222 40 52.1111 40.7778 53.6667 42.3333C55.2222 43.8889 56 45.7778 56 48C56 50.2222 55.2222 52.1111 53.6667 53.6667C52.1111 55.2222 50.2222 56 48 56V56M16 106.667V83.7333C10.9333 79.1111 7 73.7111 4.2 67.5333C1.4 61.3556 0 54.8444 0 48C0 34.6667 4.66667 23.3333 14 14C23.3333 4.66667 34.6667 0 48 0C59.1111 0 68.9556 3.26667 77.5333 9.8C86.1111 16.3333 91.6889 24.8444 94.2667 35.3333L101.2 62.6667C101.644 64.3556 101.333 65.8889 100.267 67.2667C99.2 68.6444 97.7778 69.3333 96 69.3333H85.3333V85.3333C85.3333 88.2667 84.2889 90.7778 82.2 92.8667C80.1111 94.9556 77.6 96 74.6667 96H64V106.667H16V106.667" fill="var(--fill-0, white)" fill-opacity="0.1"/>
</svg>
