<svg width="24" height="24" viewBox="0 0 24 24" fill="none" xmlns="http://www.w3.org/2000/svg">
  <path d="M12 3L13.3 4.1L15 3.9L15.8 5.5L17.4 6.3L17.2 8L19 9.3L17.9 10.6L18.1 12.3L16.5 13.1L15.7 14.7L14 14.5L12 16L10.7 14.9L9 15.1L8.2 13.5L6.6 12.7L6.8 11L5 9.7L6.1 8.4L5.9 6.7L7.5 5.9L8.3 4.3L10 4.5L12 3Z" stroke="#232420" stroke-width="1.6" stroke-linecap="round" stroke-linejoin="round"/>
  <path d="M12 15.2C13.7673 15.2 15.2 13.7673 15.2 12C15.2 10.2327 13.7673 8.8 12 8.8C10.2327 8.8 8.8 10.2327 8.8 12C8.8 13.7673 10.2327 15.2 12 15.2Z" stroke="#232420" stroke-width="1.6" stroke-linecap="round" stroke-linejoin="round"/>
</svg>
