<svg preserveAspectRatio="none" width="100%" height="100%" overflow="visible" style="display: block;" viewBox="0 0 54.5 54.5" fill="none" xmlns="http://www.w3.org/2000/svg">
<g id="Overlay">
<rect width="54.5" height="54.5" rx="27.25" fill="var(--fill-0, #2D5A27)" fill-opacity="0.1"/>
<path id="Icon" d="M36 27.25C36 24.8125 35.151 22.7448 33.4531 21.0469C31.7552 19.349 29.6875 18.5 27.25 18.5V16C28.8125 16 30.276 16.2969 31.6406 16.8906C33.0052 17.4844 34.1927 18.2865 35.2031 19.2969C36.2135 20.3073 37.0156 21.4948 37.6094 22.8594C38.2031 24.224 38.5 25.6875 38.5 27.25H36V27.25M31 27.25C31 26.2083 30.6354 25.3229 29.9062 24.5938C29.1771 23.8646 28.2917 23.5 27.25 23.5V21C28.9792 21 30.4531 21.6094 31.6719 22.8281C32.8906 24.0469 33.5 25.5208 33.5 27.25H31V27.25M37.1875 38.5C34.5833 38.5 32.0104 37.9323 29.4688 36.7969C26.9271 35.6615 24.6146 34.0521 22.5312 31.9688C20.4479 29.8854 18.8385 27.5729 17.7031 25.0312C16.5677 22.4896 16 19.9167 16 17.3125C16 16.9375 16.125 16.625 16.375 16.375C16.625 16.125 16.9375 16 17.3125 16H22.375C22.6667 16 22.9271 16.099 23.1562 16.2969C23.3854 16.4948 23.5208 16.7292 23.5625 17L24.375 21.375C24.4167 21.7083 24.4062 21.9896 24.3438 22.2188C24.2812 22.4479 24.1667 22.6458 24 22.8125L20.9688 25.875C21.3854 26.6458 21.8802 27.3906 22.4531 28.1094C23.026 28.8281 23.6562 29.5208 24.3438 30.1875C24.9896 30.8333 25.6667 31.4323 26.375 31.9844C27.0833 32.5365 27.8333 33.0417 28.625 33.5L31.5625 30.5625C31.75 30.375 31.9948 30.2344 32.2969 30.1406C32.599 30.0469 32.8958 30.0208 33.1875 30.0625L37.5 30.9375C37.7917 31.0208 38.0312 31.1719 38.2188 31.3906C38.4062 31.6094 38.5 31.8542 38.5 32.125V37.1875C38.5 37.5625 38.375 37.875 38.125 38.125C37.875 38.375 37.5625 38.5 37.1875 38.5V38.5M19.7812 23.5L21.8438 21.4375V21.4375V21.4375L21.3125 18.5V18.5V18.5H18.5312V18.5V18.5C18.6354 19.3542 18.7812 20.1979 18.9688 21.0312C19.1562 21.8646 19.4271 22.6875 19.7812 23.5V23.5M30.9688 34.6875C31.7812 35.0417 32.6094 35.3229 33.4531 35.5312C34.2969 35.7396 35.1458 35.875 36 35.9375V35.9375V35.9375V33.1875V33.1875V33.1875L33.0625 32.5938V32.5938V32.5938L30.9688 34.6875V34.6875M19.7812 23.5V23.5V23.5V23.5V23.5V23.5V23.5V23.5V23.5V23.5V23.5V23.5V23.5M30.9688 34.6875V34.6875V34.6875V34.6875V34.6875V34.6875V34.6875V34.6875V34.6875V34.6875V34.6875V34.6875V34.6875" fill="var(--fill-0, #154212)"/>
</g>
</svg>
