<svg preserveAspectRatio="none" width="100%" height="100%" overflow="visible" style="display: block;" viewBox="0 0 46 45" fill="none" xmlns="http://www.w3.org/2000/svg">
<g id="Background">
<rect width="46" height="45" rx="22.5" fill="var(--fill-0, #2D5A27)"/>
<path id="Icon" d="M19.6 33L17.7 29.8L14.1 29L14.45 25.3L12 22.5L14.45 19.7L14.1 16L17.7 15.2L19.6 12L23 13.45L26.4 12L28.3 15.2L31.9 16L31.55 19.7L34 22.5L31.55 25.3L31.9 29L28.3 29.8L26.4 33L23 31.55L19.6 33V33M20.45 30.45L23 29.35L25.6 30.45L27 28.05L29.75 27.4L29.5 24.6L31.35 22.5L29.5 20.35L29.75 17.55L27 16.95L25.55 14.55L23 15.65L20.4 14.55L19 16.95L16.25 17.55L16.5 20.35L14.65 22.5L16.5 24.6L16.25 27.45L19 28.05L20.45 30.45V30.45M23 22.5V22.5V22.5V22.5V22.5V22.5V22.5V22.5V22.5V22.5V22.5V22.5V22.5V22.5V22.5V22.5V22.5V22.5V22.5V22.5V22.5V22.5M21.95 26.05L27.6 20.4L26.2 18.95L21.95 23.2L19.8 21.1L18.4 22.5L21.95 26.05V26.05" fill="var(--fill-0, white)"/>
</g>
</svg>
