<svg preserveAspectRatio="none" width="100%" height="100%" overflow="visible" style="display: block;" viewBox="0 0 270 210" fill="none" xmlns="http://www.w3.org/2000/svg">
<g id="Shadow" filter="url(#filter0_d_0_4)">
<path id="Icon" d="M80 160C64.8333 160 51.875 154.75 41.125 144.25C30.375 133.75 25 120.917 25 105.75C25 92.75 28.9167 81.1667 36.75 71C44.5833 60.8333 54.8333 54.3333 67.5 51.5C71.6667 36.1667 80 23.75 92.5 14.25C105 4.75 119.167 0 135 0C154.5 0 171.042 6.79167 184.625 20.375C198.208 33.9583 205 50.5 205 70V70V70C216.5 71.3333 226.042 76.2917 233.625 84.875C241.208 93.4583 245 103.5 245 115C245 127.5 240.625 138.125 231.875 146.875C223.125 155.625 212.5 160 200 160H80V160M80 140H200C207 140 212.917 137.583 217.75 132.75C222.583 127.917 225 122 225 115C225 108 222.583 102.083 217.75 97.25C212.917 92.4167 207 90 200 90H185V70C185 56.1667 180.125 44.375 170.375 34.625C160.625 24.875 148.833 20 135 20C121.167 20 109.375 24.875 99.625 34.625C89.875 44.375 85 56.1667 85 70V70H80C70.3333 70 62.0833 73.4167 55.25 80.25C48.4167 87.0833 45 95.3333 45 105C45 114.667 48.4167 122.917 55.25 129.75C62.0833 136.583 70.3333 140 80 140V140M135 80V80V80V80V80V80V80V80V80V80V80V80V80V80V80V80V80V80V80" fill="var(--fill-0, #BCF0AE)"/>
</g>
<defs>
<filter id="filter0_d_0_4" x="0" y="0" width="270" height="210" filterUnits="userSpaceOnUse" color-interpolation-filters="sRGB">
<feFlood flood-opacity="0" result="BackgroundImageFix"/>
<feColorMatrix in="SourceAlpha" type="matrix" values="0 0 0 0 0 0 0 0 0 0 0 0 0 0 0 0 0 0 127 0" result="hardAlpha"/>
<feOffset dy="25"/>
<feGaussianBlur stdDeviation="12.5"/>
<feComposite in2="hardAlpha" operator="out"/>
<feColorMatrix type="matrix" values="0 0 0 0 0 0 0 0 0 0 0 0 0 0 0 0 0 0 0.15 0"/>
<feBlend mode="normal" in2="BackgroundImageFix" result="effect1_dropShadow_0_4"/>
<feBlend mode="normal" in="SourceGraphic" in2="effect1_dropShadow_0_4" result="shape"/>
</filter>
</defs>
</svg>
