<svg preserveAspectRatio="none" width="100%" height="100%" overflow="visible" style="display: block;" viewBox="0 0 40 40.037" fill="none" xmlns="http://www.w3.org/2000/svg">
<g id="Container">
<path id="Icon" d="M23.9 39.8C23.4 40.0667 22.8917 40.1083 22.375 39.925C21.8583 39.7417 21.4667 39.4 21.2 38.9L18.2 32.9C17.9333 32.4 17.8917 31.8917 18.075 31.375C18.2583 30.8583 18.6 30.4667 19.1 30.2C19.6 29.9333 20.1083 29.8917 20.625 30.075C21.1417 30.2583 21.5333 30.6 21.8 31.1L24.8 37.1C25.0667 37.6 25.1083 38.1083 24.925 38.625C24.7417 39.1417 24.4 39.5333 23.9 39.8V39.8M35.9 39.8C35.4 40.0667 34.8917 40.1083 34.375 39.925C33.8583 39.7417 33.4667 39.4 33.2 38.9L30.2 32.9C29.9333 32.4 29.8917 31.8917 30.075 31.375C30.2583 30.8583 30.6 30.4667 31.1 30.2C31.6 29.9333 32.1083 29.8917 32.625 30.075C33.1417 30.2583 33.5333 30.6 33.8 31.1L36.8 37.1C37.0667 37.6 37.1083 38.1083 36.925 38.625C36.7417 39.1417 36.4 39.5333 35.9 39.8V39.8M11.9 39.8C11.4 40.0667 10.8917 40.1083 10.375 39.925C9.85833 39.7417 9.46667 39.4 9.2 38.9L6.2 32.9C5.93333 32.4 5.89167 31.8917 6.075 31.375C6.25833 30.8583 6.6 30.4667 7.1 30.2C7.6 29.9333 8.10833 29.8917 8.625 30.075C9.14167 30.2583 9.53333 30.6 9.8 31.1L12.8 37.1C13.0667 37.6 13.1083 38.1083 12.925 38.625C12.7417 39.1417 12.4 39.5333 11.9 39.8V39.8M11 28C7.96667 28 5.375 26.925 3.225 24.775C1.075 22.625 0 20.0333 0 17C0 14.2333 0.916667 11.8167 2.75 9.75C4.58333 7.68333 6.85 6.46667 9.55 6.1C10.6167 4.2 12.075 2.70833 13.925 1.625C15.775 0.541667 17.8 0 20 0C23 0 25.6083 0.958333 27.825 2.875C30.0417 4.79167 31.3833 7.18333 31.85 10.05C34.15 10.25 36.0833 11.2 37.65 12.9C39.2167 14.6 40 16.6333 40 19C40 21.5 39.125 23.625 37.375 25.375C35.625 27.125 33.5 28 31 28H11V28M11 24H31C32.4 24 33.5833 23.5167 34.55 22.55C35.5167 21.5833 36 20.4 36 19C36 17.6 35.5167 16.4167 34.55 15.45C33.5833 14.4833 32.4 14 31 14H28V12C28 9.8 27.2167 7.91667 25.65 6.35C24.0833 4.78333 22.2 4 20 4C18.4 4 16.9417 4.43333 15.625 5.3C14.3083 6.16667 13.3167 7.33333 12.65 8.8L12.15 10H10.9C9 10.0667 7.375 10.775 6.025 12.125C4.675 13.475 4 15.1 4 17C4 18.9333 4.68333 20.5833 6.05 21.95C7.41667 23.3167 9.06667 24 11 24V24M20 14V14V14V14V14V14V14V14V14V14V14V14V14V14V14V14V14V14V14" fill="var(--fill-0, #75584D)"/>
</g>
</svg>
