<svg preserveAspectRatio="none" width="100%" height="100%" overflow="visible" style="display: block;" viewBox="0 0 44 40" fill="none" xmlns="http://www.w3.org/2000/svg">
<g id="Container">
<path id="Icon" d="M20 8V0H24V8H20V8M33.3 13.5L30.5 10.7L36.15 5L38.95 7.85L33.3 13.5V13.5M36 24V20H44V24H36V24M36.15 38.95L30.5 33.3L33.3 30.5L39 36.1L36.15 38.95V38.95M10.7 13.5L5.05 7.85L7.9 5L13.5 10.7L10.7 13.5V13.5M10 36H19C19.8333 36 20.5417 35.7083 21.125 35.125C21.7083 34.5417 22 33.8333 22 33C22 32.1667 21.7167 31.4583 21.15 30.875C20.5833 30.2917 19.8833 30 19.05 30H16.5L15.5 27.6C15.0333 26.5 14.3 25.625 13.3 24.975C12.3 24.325 11.2 24 10 24C8.33333 24 6.91667 24.5833 5.75 25.75C4.58333 26.9167 4 28.3333 4 30C4 31.6667 4.58333 33.0833 5.75 34.25C6.91667 35.4167 8.33333 36 10 36V36M10 40C7.23333 40 4.875 39.025 2.925 37.075C0.975 35.125 0 32.7667 0 30C0 27.2333 0.975 24.875 2.925 22.925C4.875 20.975 7.23333 20 10 20C12 20 13.825 20.5417 15.475 21.625C17.125 22.7083 18.35 24.1667 19.15 26V26V26C21.0833 26 22.7083 26.7167 24.025 28.15C25.3417 29.5833 26 31.3 26 33.3C25.9333 35.2 25.225 36.7917 23.875 38.075C22.525 39.3583 20.9 40 19 40H10V40M26 33.3C25.8333 32.6333 25.6667 31.9833 25.5 31.35C25.3333 30.7167 25.1667 30.0667 25 29.4C26.5 28.7667 27.7083 27.7833 28.625 26.45C29.5417 25.1167 30 23.6333 30 22C30 19.8 29.2167 17.9167 27.65 16.35C26.0833 14.7833 24.2 14 22 14C20 14 18.25 14.65 16.75 15.95C15.25 17.25 14.3667 18.9 14.1 20.9C13.4333 20.7333 12.75 20.5833 12.05 20.45C11.35 20.3167 10.6667 20.1667 10 20C10.4667 17.0667 11.8417 14.6667 14.125 12.8C16.4083 10.9333 19.0333 10 22 10C25.3333 10 28.1667 11.1667 30.5 13.5C32.8333 15.8333 34 18.6667 34 22C34 24.5667 33.2667 26.875 31.8 28.925C30.3333 30.975 28.4 32.4333 26 33.3V33.3M22.05 22V22V22V22V22V22V22V22V22V22V22V22" fill="var(--fill-0, #154212)"/>
</g>
</svg>
