<svg preserveAspectRatio="none" width="100%" height="100%" overflow="visible" style="display: block;" viewBox="0 0 44 44" fill="none" xmlns="http://www.w3.org/2000/svg">
<g id="Container">
<path id="Icon" d="M20 6V0H24V6H20V6M20 44V38H24V44H20V44M38 24V20H44V24H38V24M0 24V20H6V24H0V24M35.4 11.4L32.6 8.6L36.1 5L39 7.9L35.4 11.4V11.4M7.9 39L5 36.1L8.6 32.6L11.4 35.4L7.9 39V39M36.1 39L32.6 35.4L35.4 32.6L39 36.1L36.1 39V39M8.6 11.4L5 7.9L7.9 5L11.4 8.6L8.6 11.4V11.4M22 34C18.6667 34 15.8333 32.8333 13.5 30.5C11.1667 28.1667 10 25.3333 10 22C10 18.6667 11.1667 15.8333 13.5 13.5C15.8333 11.1667 18.6667 10 22 10C25.3333 10 28.1667 11.1667 30.5 13.5C32.8333 15.8333 34 18.6667 34 22C34 25.3333 32.8333 28.1667 30.5 30.5C28.1667 32.8333 25.3333 34 22 34V34M22 30C24.2333 30 26.125 29.225 27.675 27.675C29.225 26.125 30 24.2333 30 22C30 19.7667 29.225 17.875 27.675 16.325C26.125 14.775 24.2333 14 22 14C19.7667 14 17.875 14.775 16.325 16.325C14.775 17.875 14 19.7667 14 22C14 24.2333 14.775 26.125 16.325 27.675C17.875 29.225 19.7667 30 22 30V30M22 22V22V22V22V22V22V22V22V22V22" fill="var(--fill-0, #154212)"/>
</g>
</svg>
